<?xml version="1.0" encoding="UTF-8"?>
<svg version="1.1" xmlns="http://www.w3.org/2000/svg" width="2400" height="2400">
<path d="M0 0 C1.8203125 1.69140625 1.8203125 1.69140625 3 3 C6.01887119 1.56276975 8.75808063 -0.12178861 11.5625 -1.9375 C21.56711444 -7.95498133 32.27123803 -9.60285724 43.59375 -6.83203125 C49.56006555 -4.76900331 55.73076865 -1.73573676 60 3 C63.01887119 1.56276975 65.75808063 -0.12178861 68.5625 -1.9375 C78.63350194 -7.99491146 88.56613771 -9.27269047 99.9375 -6.9375 C110.35239385 -4.10189277 118.58441396 2.89907323 124.24609375 12.00390625 C129.34195073 21.54230521 130.64965665 32.08039948 128.13671875 42.62109375 C127.16779374 45.78155095 126.12770762 48.89314286 125 52 C124.67 52.99 124.34 53.98 124 55 C124.6290625 54.66226563 125.258125 54.32453125 125.90625 53.9765625 C137.24015609 48.07064155 147.60972012 46.15856914 160 50 C169.99849798 53.54848654 177.41853896 60.86863312 182.0625 70.25 C187.50894867 81.78365601 187.25494564 93.09000044 183.2265625 105.1171875 C182.1054759 107.75209805 180.93184779 109.74891431 179.1875 112 C176.79202629 114.71069037 176.79202629 114.71069037 176.875 117.4375 C177.88495419 119.7379512 179.00282351 121.59576755 180.375 123.6875 C186.00571136 132.45182464 187.0625814 141.7246118 186 152 C184.96200502 156.13795297 183.58613118 160.04422705 182 164 C181.67 164.99 181.34 165.98 181 167 C181.67546875 166.65066406 182.3509375 166.30132813 183.046875 165.94140625 C183.93890625 165.48636719 184.8309375 165.03132813 185.75 164.5625 C186.63171875 164.11003906 187.5134375 163.65757812 188.421875 163.19140625 C196.67307724 159.37835067 208.14212013 159.60988355 216.78125 162.08203125 C219.6066029 163.27183399 222.30905375 164.53439534 225 166 C225.66 166.33 226.32 166.66 227 167 C226.58427734 166.09507812 226.58427734 166.09507812 226.16015625 165.171875 C225.79792969 164.37265625 225.43570312 163.5734375 225.0625 162.75 C224.70285156 161.96109375 224.34320312 161.1721875 223.97265625 160.359375 C220.2993547 151.4490371 220.55871222 138.87084528 223.6875 129.8125 C225.0683383 126.5573108 226.70815323 123.90924968 228.875 121.125 C231.34962849 118.26258171 231.34962849 118.26258171 230.5625 115.4375 C229.43679109 113.6813941 228.26390214 111.95521593 227.0625 110.25 C220.74611886 100.29691457 220.26751536 88.01972729 222.7265625 76.63671875 C224.21358347 72.26632785 226.04376812 68.76293905 228.875 65.125 C231.34962849 62.26258171 231.34962849 62.26258171 230.5625 59.4375 C229.43679109 57.6813941 228.26390214 55.95521593 227.0625 54.25 C221.15904269 44.94758242 220.88094639 34.75383221 222 24 C223.98972751 15.12275418 228.27431227 8.11426157 235 2 C235.54140625 1.50371094 236.0828125 1.00742187 236.640625 0.49609375 C243.98139371 -5.65719767 253.81027659 -8.85128942 263.3984375 -8.3828125 C273.68819742 -6.86870368 281.67137113 -3.32862887 289 4 C289.64324219 3.46890625 290.28648438 2.9378125 290.94921875 2.390625 C299.32721876 -4.15879584 308.76484279 -8.9379172 319.69140625 -8.31640625 C328.80168112 -7.0677899 335.7130888 -4.64147964 343 1 C343.7425 1.556875 344.485 2.11375 345.25 2.6875 C345.8275 3.120625 346.405 3.55375 347 4 C347.69222656 3.31164062 347.69222656 3.31164062 348.3984375 2.609375 C356.55825302 -5.06665699 365.94156625 -8.42746404 377.1171875 -8.27734375 C390.16084341 -7.02246628 398.92452759 -1.04443451 407.23828125 8.625 C414.36036422 18.22638901 415.10155605 29.43633515 414 41 C413.03476347 44.88288332 411.67660667 48.37745225 410 52 C409.67 52.99 409.34 53.98 409 55 C409.6290625 54.66226563 410.258125 54.32453125 410.90625 53.9765625 C421.99621406 48.19775592 431.33821341 46.21594939 443.625 49.625 C453.75576622 53.03359309 462.11389151 60.01172422 467.35546875 69.4375 C472.2442341 80.1680752 472.81820417 92.64436426 469.125 103.875 C467.96963103 106.94742563 466.83171527 109.25242709 465 112 C465.83144531 111.57847656 466.66289063 111.15695312 467.51953125 110.72265625 C469.14955078 109.90087891 469.14955078 109.90087891 470.8125 109.0625 C471.89144531 108.51722656 472.97039062 107.97195313 474.08203125 107.41015625 C481.98983668 103.58857959 492.58273501 103.81645272 501.12890625 105.68359375 C506.14591774 107.57576866 510.22216511 110.38153383 514.30859375 113.828125 C516.06804288 115.28475304 516.06804288 115.28475304 519 115 C520.76458604 113.81689941 520.76458604 113.81689941 522.5625 112.25 C532.52429624 104.67544502 542.7934181 103.59467516 555 105 C558.66756611 105.88527458 561.7360704 107.12470049 565 109 C566.051875 109.598125 567.10375 110.19625 568.1875 110.8125 C576.61204647 117.36492503 582.71935756 125.30578927 585 136 C585.63168139 146.44863148 585.53781509 155.35942095 581 165 C580.67 165.99 580.34 166.98 580 168 C580.50789063 167.66226562 581.01578125 167.32453125 581.5390625 166.9765625 C582.22742187 166.53054688 582.91578125 166.08453125 583.625 165.625 C584.63433594 164.96371094 584.63433594 164.96371094 585.6640625 164.2890625 C591.30040111 161.17870842 596.44711872 160.61244578 602.75 160.625 C603.94435669 160.62632935 603.94435669 160.62632935 605.1628418 160.62768555 C613.76298276 160.8003369 619.74965788 163.58399755 627 168 C626.65066406 167.19175781 626.30132813 166.38351562 625.94140625 165.55078125 C625.25884766 163.94783203 625.25884766 163.94783203 624.5625 162.3125 C624.11003906 161.25675781 623.65757813 160.20101563 623.19140625 159.11328125 C618.95806116 148.05106474 620.55770183 136.74705054 625 126 C629.915663 116.41591149 637.39919002 109.73258189 647.45703125 105.8828125 C657.97051077 103.26313624 670.46201534 103.4930438 680 109 C682.87618941 111.14908873 685.48755656 113.43716371 688 116 C688.556875 115.61328125 689.11375 115.2265625 689.6875 114.828125 C701.65706164 106.65970793 711.54955302 103.82514089 726 105 C732.89697662 106.406726 738.01275375 109.24974027 743.1484375 114.0234375 C745.0367569 115.28644681 745.0367569 115.28644681 747.453125 114.3515625 C750.69045188 112.63359455 753.5642507 110.58963586 756.5234375 108.4375 C765.08158169 103.46999675 776.78542428 103.69323139 786.26953125 105.6875 C791.75236264 107.52789096 795.91418498 110.0876345 800.1484375 114.0234375 C802.0367569 115.28644681 802.0367569 115.28644681 804.453125 114.3515625 C807.69045188 112.63359455 810.5642507 110.58963586 813.5234375 108.4375 C822.08158169 103.46999675 833.78542428 103.69323139 843.26953125 105.6875 C847.95803088 107.26126212 851.53514115 109.26891752 855.375 112.375 C857.21588619 113.90699429 857.21588619 113.90699429 859 115 C861.91465995 114.64455366 863.24378267 113.57051333 865.54296875 111.8359375 C875.45699391 104.4401201 885.92229045 103.76045313 898 105 C904.48334801 106.44346239 909.26364651 109.57848087 914.2109375 113.92578125 C915.93925751 115.19822056 915.93925751 115.19822056 917.99609375 114.84765625 C920.26212387 113.88912109 921.80775608 112.7091867 923.6875 111.125 C932.74633818 104.24821773 942.97185391 103.86119485 954 105 C962.04532683 106.63633766 967.90339336 110.6410075 974 116 C974.4846875 115.61328125 974.969375 115.2265625 975.46875 114.828125 C986.98688068 105.87942347 997.49958412 103.53032045 1012 105 C1019.69655716 106.95361188 1026.00677754 110.87050666 1032 116 C1032.4125 115.61328125 1032.825 115.2265625 1033.25 114.828125 C1043.43141631 105.64666922 1053.36238014 104.11833681 1066.76464844 104.7734375 C1075.34193716 105.64278262 1082.60048837 110.52277093 1089 116 C1089.4125 115.61328125 1089.825 115.2265625 1090.25 114.828125 C1100.43141631 105.64666922 1110.36238014 104.11833681 1123.76464844 104.7734375 C1132.34193716 105.64278262 1139.60048837 110.52277093 1146 116 C1146.4125 115.61328125 1146.825 115.2265625 1147.25 114.828125 C1157.43141631 105.64666922 1167.36238014 104.11833681 1180.76464844 104.7734375 C1189.34193716 105.64278262 1196.60048837 110.52277093 1203 116 C1203.4125 115.61328125 1203.825 115.2265625 1204.25 114.828125 C1214.52659858 105.56083521 1224.36912541 104.25963767 1237.859375 104.82080078 C1247.21009421 105.60358225 1255.10967956 111.63599831 1261.25 118.375 C1269.01659214 127.95661096 1270.88227066 138.88017398 1270.21728516 150.98291016 C1269.61118297 156.60944524 1267.51680538 161.96638923 1265 167 C1265.67546875 166.65066406 1266.3509375 166.30132813 1267.046875 165.94140625 C1268.38492188 165.25884766 1268.38492188 165.25884766 1269.75 164.5625 C1270.63171875 164.11003906 1271.5134375 163.65757812 1272.421875 163.19140625 C1280.66168103 159.3836171 1291.77082797 159.80359345 1300.5 161.80078125 C1312.58292784 166.37907813 1319.37721752 174.4458724 1324.72265625 185.765625 C1329.70918285 198.39205934 1326.88710666 210.90972309 1322 223 C1323.03060547 222.47599609 1323.03060547 222.47599609 1324.08203125 221.94140625 C1324.98308594 221.48636719 1325.88414062 221.03132813 1326.8125 220.5625 C1327.70582031 220.11003906 1328.59914063 219.65757812 1329.51953125 219.19140625 C1337.80876921 215.20996124 1350.27316909 215.67901897 1359 218.4375 C1369.92830498 223.15233112 1377.65643867 232.88492616 1381.953125 243.6796875 C1385.58410982 255.1958707 1384.26434851 265.73046157 1379 276.375 C1378.00824567 278.25437446 1377.00909694 280.12988012 1376 282 C1375.32803361 283.33067028 1374.65905138 284.66288613 1374 286 C1374.60457031 286.7115625 1375.20914063 287.423125 1375.83203125 288.15625 C1382.65231638 297.10249789 1384.60235893 307.57952413 1383.8125 318.62109375 C1382.72136546 325.72483423 1379.37896985 331.7378874 1376 338 C1375.32803361 339.33067028 1374.65905138 340.66288613 1374 342 C1374.59748047 342.8353125 1374.59748047 342.8353125 1375.20703125 343.6875 C1382.40022714 354.04850236 1385.45529417 364.27627368 1383.4375 377.0625 C1381.99298736 383.1493774 1378.95147061 388.53015502 1376 394 C1375.32803361 395.33067028 1374.65905138 396.66288613 1374 398 C1374.59748047 398.8353125 1374.59748047 398.8353125 1375.20703125 399.6875 C1382.60152477 410.3384493 1385.27329607 420.53090354 1383.4375 433.625 C1382.14468259 439.71461578 1379.15886636 444.70374853 1376 450 C1375.31994497 451.3265547 1374.64791142 452.65745279 1374 454 C1374.59748047 454.8353125 1374.59748047 454.8353125 1375.20703125 455.6875 C1382.60916986 466.34946121 1385.32399461 476.58283146 1383.375 489.6875 C1381.7796713 497.12151467 1378.03832881 503.62369135 1374 510 C1374.59748047 510.8353125 1374.59748047 510.8353125 1375.20703125 511.6875 C1382.60916986 522.34946121 1385.32399461 532.58283146 1383.375 545.6875 C1380.92678771 556.84226856 1374.86671302 566.1096439 1365.25 572.3125 C1354.10891507 578.51701922 1343.76788373 579.33500745 1331.67578125 575.94921875 C1329 575 1329 575 1326.09765625 573.421875 C1320.26543167 570.74478831 1312.66832959 570.73156785 1306.59375 572.83203125 C1305.30529655 573.5146048 1304.03295142 574.22872394 1302.78125 574.9765625 C1295.91092114 578.92398829 1287.37026064 578.89770421 1279.82421875 577.34765625 C1272.11928341 575.23807936 1266.21099036 571.99122476 1260 567 C1257.05051843 568.37906409 1254.55729164 570.01305493 1251.9375 571.9375 C1244.23192696 577.10402356 1235.21308459 579.19877855 1226 578 C1213.21553392 575.26708877 1204.76397654 569.46673556 1197 559 C1191.36146116 548.86037973 1190.056815 536.8169033 1192.859375 525.54296875 C1193.81038402 522.96904217 1194.84805747 520.48893608 1196 518 C1196.33 517.01 1196.66 516.02 1197 515 C1196.38253906 515.33773437 1195.76507812 515.67546875 1195.12890625 516.0234375 C1184.07061631 521.84713357 1174.36893275 523.74948361 1162.25 520.1875 C1158.11924853 518.8854153 1154.63986 517.35242804 1151 515 C1151.41572266 515.99580078 1151.41572266 515.99580078 1151.83984375 517.01171875 C1152.20207031 517.89472656 1152.56429687 518.77773437 1152.9375 519.6875 C1153.29714844 520.55761719 1153.65679688 521.42773438 1154.02734375 522.32421875 C1157.72868879 532.50663383 1157.10110932 544.34201686 1153.25390625 554.35546875 C1148.4195353 564.55132275 1139.94487491 572.45145898 1129.359375 576.30859375 C1118.7338071 579.42237772 1109.18181083 578.3033963 1099 574 C1095.47103059 571.889848 1092.20364009 569.57448278 1089 567 C1086.05051843 568.37906409 1083.55729164 570.01305493 1080.9375 571.9375 C1073.2261079 577.10792519 1064.21836538 579.1894665 1055 578 C1046.01285542 576.13599964 1039.13417031 572.733103 1032 567 C1028.00646451 568.91837271 1024.29997517 571.2349458 1020.53515625 573.5625 C1011.76231093 578.53693309 1002.26197545 579.20397009 992.5625 576.875 C987.60998203 575.42124121 983.51058225 573.19877896 979.19140625 570.40234375 C977.17690679 569.11320773 975.15736088 568.02708069 973 567 C972.30777344 567.58007812 972.30777344 567.58007812 971.6015625 568.171875 C962.60885063 575.35182677 952.53687385 578.96587781 941 578 C933.90953 576.77857597 928.21363279 574.301413 922.19140625 570.40234375 C920.17690679 569.11320773 918.15736088 568.02708069 916 567 C915.52691406 567.38671875 915.05382813 567.7734375 914.56640625 568.171875 C905.27355607 575.49022095 895.90616889 579.01090113 884 578 C876.90928338 576.77674772 871.21431159 574.30185248 865.19140625 570.40234375 C863.17690679 569.11320773 861.15736088 568.02708069 859 567 C858.30777344 567.58007812 858.30777344 567.58007812 857.6015625 568.171875 C848.60885063 575.35182677 838.53687385 578.96587781 827 578 C819.90953 576.77857597 814.21363279 574.301413 808.19140625 570.40234375 C806.17690679 569.11320773 804.15736088 568.02708069 802 567 C801.30777344 567.58007812 801.30777344 567.58007812 800.6015625 568.171875 C791.60885063 575.35182677 781.53687385 578.96587781 770 578 C762.90953 576.77857597 757.21363279 574.301413 751.19140625 570.40234375 C749.17690679 569.11320773 747.15736088 568.02708069 745 567 C744.30777344 567.58007812 744.30777344 567.58007812 743.6015625 568.171875 C733.82652343 575.97645165 723.21147357 579.10836279 710.8046875 577.76171875 C703.22428558 576.41680873 695.20859663 572.77774792 690 567 C686.98112881 568.43723025 684.24191937 570.12178861 681.4375 571.9375 C671.36649806 577.99491146 661.43386229 579.27269047 650.0625 576.9375 C644.52393127 575.4803542 640.59104139 572.99578832 636.15625 569.42578125 C633.87474354 567.63229482 633.87474354 567.63229482 630 568 C627.50324804 569.43145954 627.50324804 569.43145954 624.9375 571.3125 C614.79456525 577.98441713 604.79788828 579.34744581 593.0625 576.9375 C587.52393127 575.4803542 583.59104139 572.99578832 579.15625 569.42578125 C576.87474354 567.63229482 576.87474354 567.63229482 573 568 C570.50324804 569.43145954 570.50324804 569.43145954 567.9375 571.3125 C559.71641657 576.71305215 550.85107662 579.28179213 541 578 C528.71136366 575.37308136 520.46005456 570.06063338 513 560 C506.81061708 550.0892747 505.25946753 538.47807753 507.60546875 527.05078125 C508.81974332 522.92717878 510.38988668 518.98328034 512 515 C511.3709375 515.33773437 510.741875 515.67546875 510.09375 516.0234375 C498.89287526 521.86003789 489.54915619 523.82902626 477.1875 520.1875 C473.08334686 518.88276922 469.62079649 517.33578184 466 515 C466.3609375 515.81339844 466.721875 516.62679687 467.09375 517.46484375 C471.66346294 528.74949599 473.25028962 540.25676539 469.375 552.0625 C464.98384582 562.19122498 457.06409136 571.18600698 446.75 575.4375 C435.4341283 579.56076697 425.06852114 578.63070782 414 574 C411.09866448 572.22293199 408.5709526 570.21633845 406 568 C405.01 567.34 404.02 566.68 403 566 C402.30777344 566.68835937 402.30777344 566.68835937 401.6015625 567.390625 C393.44174698 575.06665699 384.05843375 578.42746404 372.8828125 578.27734375 C363.55308198 577.37976805 356.02566185 574.05660504 349 568 C348.01 567.34 347.02 566.68 346 566 C345.30777344 566.68835937 345.30777344 566.68835937 344.6015625 567.390625 C338.14006174 573.46903283 330.95602963 577.23778471 322 578 C321.3709375 578.06316406 320.741875 578.12632812 320.09375 578.19140625 C307.91586447 578.87530924 298.1379863 573.54479029 289 566 C288.30777344 566.68835937 288.30777344 566.68835937 287.6015625 567.390625 C279.44438027 575.06417983 270.05041025 578.43973825 258.875 578.2734375 C248.79897896 577.31512028 240.79325095 573.26274794 233 567 C230.05051843 568.37906409 227.55729164 570.01305493 224.9375 571.9375 C217.2261079 577.10792519 208.21836538 579.1894665 199 578 C190.01285542 576.13599964 183.13417031 572.733103 176 567 C173.05709278 568.37291877 170.60004497 570.00223926 168 571.9375 C160.54650623 576.95144564 150.94675009 579.27810716 142 578 C133.01830734 576.09479247 126.14080459 572.73843439 119 567 C116.05709278 568.37291877 113.60004497 570.00223926 111 571.9375 C103.54650623 576.95144564 93.94675009 579.27810716 85 578 C72.04533834 575.25204147 63.05446265 569.77436394 55.625 558.75 C49.90131691 549.06376707 48.6583121 537.28658359 51.25390625 526.3671875 C52.49804923 522.41980192 54.15820572 518.70147006 56 515 C55.13117187 515.42152344 54.26234375 515.84304688 53.3671875 516.27734375 C52.21476563 516.82519531 51.06234375 517.37304688 49.875 517.9375 C48.16957031 518.75541016 48.16957031 518.75541016 46.4296875 519.58984375 C35.75986463 523.97686659 25.43952329 522.2583964 15 518 C12.50166958 516.51333023 10.19834167 514.95226494 7.90234375 513.171875 C5.80477522 511.65034164 5.80477522 511.65034164 2 512 C-0.17973869 513.19294776 -0.17973869 513.19294776 -2.3125 514.8125 C-10.61835051 520.58574691 -18.87154415 522.87451346 -29 522 C-36.41296254 520.64149171 -42.62933984 517.97969635 -49 514 C-48.66226563 514.54527344 -48.32453125 515.09054687 -47.9765625 515.65234375 C-41.83810254 526.0309538 -40.59382661 536.14272715 -43.0625 547.9375 C-46.03536943 558.74540848 -52.52363855 567.28277194 -61.96875 573.2421875 C-72.22835563 578.81983024 -83.15202787 579.3071119 -94.21875 576.05859375 C-98.04444474 574.60246556 -101.38008184 572.62212164 -104.80859375 570.40234375 C-106.82309321 569.11320773 -108.84263912 568.02708069 -111 567 C-111.46148438 567.38671875 -111.92296875 567.7734375 -112.3984375 568.171875 C-121.39114937 575.35182677 -131.46312615 578.96587781 -143 578 C-150.09047 576.77857597 -155.78636721 574.301413 -161.80859375 570.40234375 C-163.82309321 569.11320773 -165.84263912 568.02708069 -168 567 C-168.46148438 567.38671875 -168.92296875 567.7734375 -169.3984375 568.171875 C-178.39114937 575.35182677 -188.46312615 578.96587781 -200 578 C-207.09047 576.77857597 -212.78636721 574.301413 -218.80859375 570.40234375 C-220.82309321 569.11320773 -222.84263912 568.02708069 -225 567 C-225.46148438 567.38671875 -225.92296875 567.7734375 -226.3984375 568.171875 C-236.17347657 575.97645165 -246.78852643 579.10836279 -259.1953125 577.76171875 C-266.77571442 576.41680873 -274.79140337 572.77774792 -280 567 C-283.01887119 568.43723025 -285.75808063 570.12178861 -288.5625 571.9375 C-298.63350194 577.99491146 -308.56613771 579.27269047 -319.9375 576.9375 C-330.35239385 574.10189277 -338.58441396 567.10092677 -344.24609375 557.99609375 C-349.42027344 548.31109074 -350.8014609 537.23029781 -348.13671875 526.53515625 C-347.17434287 523.6480286 -346.13233581 520.82401822 -345 518 C-344.67 517.01 -344.34 516.02 -344 515 C-344.6290625 515.33773437 -345.258125 515.67546875 -345.90625 516.0234375 C-357.55768321 522.09481686 -367.31468812 523.52985706 -380.078125 520.03125 C-389.79108453 516.60314664 -397.61446744 508.93933506 -402.375 499.875 C-407.38620849 489.33741206 -407.65792157 477.10613785 -403.8515625 466.1484375 C-402.90624961 463.76347378 -401.95998821 461.37910121 -401 459 C-401.6290625 459.33773438 -402.258125 459.67546875 -402.90625 460.0234375 C-414.57777594 466.10528686 -424.27541684 467.47979906 -437.0625 464.0546875 C-441.5917585 462.42849097 -445.21837426 459.92771025 -449 457 C-449.7425 456.443125 -450.485 455.88625 -451.25 455.3125 C-451.8275 454.879375 -452.405 454.44625 -453 454 C-453.46148437 454.45890625 -453.92296875 454.9178125 -454.3984375 455.390625 C-462.32877725 462.8507865 -471.50809924 466.39233612 -482.41015625 466.2109375 C-491.61189778 465.46147439 -498.7458644 462.61610498 -506 457 C-506.7425 456.443125 -507.485 455.88625 -508.25 455.3125 C-508.8275 454.879375 -509.405 454.44625 -510 454 C-510.46148437 454.45890625 -510.92296875 454.9178125 -511.3984375 455.390625 C-519.57096456 463.07861488 -528.92415511 466.38964403 -540.10546875 466.2890625 C-547.55490621 465.54512408 -554.72318716 463.0491824 -561 459 C-560.72285156 459.66386719 -560.44570313 460.32773438 -560.16015625 461.01171875 C-559.79792969 461.89472656 -559.43570313 462.77773437 -559.0625 463.6875 C-558.52302734 464.99267578 -558.52302734 464.99267578 -557.97265625 466.32421875 C-554.23314021 476.61164239 -555.00372139 488.28189506 -558.76953125 498.41015625 C-559.93395212 500.86098495 -561.20510459 502.810099 -562.875 504.9375 C-563.57625 505.948125 -564.2775 506.95875 -565 508 C-563.5561954 512.94899497 -560.7178054 517.50425566 -558.33984375 522.0625 C-554.32527606 530.86411778 -554.83281993 542.3310538 -557.625 551.4375 C-561.30927603 561.02688743 -568.40369201 569.59387072 -577.625 574.35546875 C-588.63183841 578.89251375 -598.39144305 579.13742484 -609.7265625 575.421875 C-615.08405791 573.09475289 -619.51636013 569.7019231 -624 566 C-624.4125 566.38671875 -624.825 566.7734375 -625.25 567.171875 C-633.59697938 574.69906176 -642.90535691 578.604334 -654.23046875 578.30859375 C-664.2726454 577.18964882 -672.20202426 573.26654484 -680 567 C-682.94290722 568.37291877 -685.39995503 570.00223926 -688 571.9375 C-695.45349377 576.95144564 -705.05324991 579.27810716 -714 578 C-725.19592932 575.6251059 -735.10647114 570.97364475 -741.6875 561.2890625 C-748.69397078 549.06944382 -750.53886943 537.67374679 -747 524 C-745.84411861 520.89713969 -744.5276522 517.93665181 -743 515 C-743.61746094 515.33773437 -744.23492188 515.67546875 -744.87109375 516.0234375 C-756.29173737 522.03796215 -766.7306917 523.79383047 -779.23046875 520.03515625 C-790.47620862 515.83188253 -797.99016141 508.46292612 -802.99609375 497.625 C-807.14725342 486.77060585 -807.00745323 475.33571669 -802.6875 464.5625 C-800.79551058 460.41002322 -798.73624951 456.64833267 -796 453 C-796.39832031 452.3709375 -796.79664063 451.741875 -797.20703125 451.09375 C-804.4245077 439.43339875 -807.78239338 428.64228647 -804.87109375 414.80859375 C-803.24099869 409.55281639 -800.63110103 404.81176901 -798 400 C-797.32714317 398.66977975 -796.657797 397.33773141 -796 396 C-796.90685547 394.93265625 -796.90685547 394.93265625 -797.83203125 393.84375 C-804.65231638 384.89750211 -806.60235893 374.42047587 -805.8125 363.37890625 C-804.72136546 356.27516577 -801.37896985 350.2621126 -798 344 C-797.32803361 342.66932972 -796.65905138 341.33711387 -796 340 C-796.90685547 338.93265625 -796.90685547 338.93265625 -797.83203125 337.84375 C-804.65231638 328.89750211 -806.60235893 318.42047587 -805.8125 307.37890625 C-804.72136546 300.27516577 -801.37896985 294.2621126 -798 288 C-797.32803361 286.66932972 -796.65905138 285.33711387 -796 284 C-796.59748047 283.1646875 -796.59748047 283.1646875 -797.20703125 282.3125 C-804.40022714 271.95149764 -807.45529417 261.72372632 -805.4375 248.9375 C-803.99298736 242.8506226 -800.95147061 237.46984498 -798 232 C-797.32803361 230.66932972 -796.65905138 229.33711387 -796 228 C-796.60457031 227.2884375 -797.20914063 226.576875 -797.83203125 225.84375 C-804.65231638 216.89750211 -806.60235893 206.42047587 -805.8125 195.37890625 C-804.72136546 188.27516577 -801.37896985 182.2621126 -798 176 C-797.32803361 174.66932972 -796.65905138 173.33711387 -796 172 C-796.39832031 171.443125 -796.79664063 170.88625 -797.20703125 170.3125 C-804.40022714 159.95149764 -807.45529417 149.72372632 -805.4375 136.9375 C-802.62115241 125.5238808 -796.46764349 115.57269799 -786.33984375 109.37109375 C-776.45669142 104.26212988 -765.65395249 103.47105161 -754.75390625 105.6484375 C-748.20743662 107.82130827 -743.1491974 111.47379191 -738 116 C-737.5153125 115.61328125 -737.030625 115.2265625 -736.53125 114.828125 C-725.01311932 105.87942347 -714.50041588 103.53032045 -700 105 C-692.30344284 106.95361188 -685.99322246 110.87050666 -680 116 C-679.5875 115.61328125 -679.175 115.2265625 -678.75 114.828125 C-668.56858369 105.64666922 -658.63761986 104.11833681 -645.23535156 104.7734375 C-636.65806284 105.64278262 -629.39951163 110.52277093 -623 116 C-622.5875 115.61328125 -622.175 115.2265625 -621.75 114.828125 C-611.56858369 105.64666922 -601.63761986 104.11833681 -588.23535156 104.7734375 C-579.65806284 105.64278262 -572.39951163 110.52277093 -566 116 C-565.0925 115.113125 -564.185 114.22625 -563.25 113.3125 C-553.61757595 105.25037172 -543.14973155 103.79765948 -531.01171875 104.75634766 C-523.67881661 105.64448313 -518.23378681 109.15354933 -512.69140625 113.828125 C-510.93195712 115.28475304 -510.93195712 115.28475304 -508 115 C-506.23541396 113.81689941 -506.23541396 113.81689941 -504.4375 112.25 C-494.44942142 104.65546097 -484.22826433 103.63870732 -472 105 C-465.54249103 106.44765314 -460.70700779 109.59784729 -455.69140625 113.828125 C-453.93195712 115.28475304 -453.93195712 115.28475304 -451 115 C-449.23541396 113.81689941 -449.23541396 113.81689941 -447.4375 112.25 C-437.44942142 104.65546097 -427.22826433 103.63870732 -415 105 C-408.54249103 106.44765314 -403.70700779 109.59784729 -398.69140625 113.828125 C-396.93195712 115.28475304 -396.93195712 115.28475304 -394 115 C-392.23541396 113.81689941 -392.23541396 113.81689941 -390.4375 112.25 C-380.47570376 104.67544502 -370.2065819 103.59467516 -358 105 C-350.25756745 106.86886303 -344.28511685 111.27947607 -338 116 C-337.46632813 115.54109375 -336.93265625 115.0821875 -336.3828125 114.609375 C-325.80131194 105.89519807 -316.53162571 103.83692478 -303.05273438 104.76367188 C-298.59127111 105.27731322 -294.86310166 106.78044458 -291 109 C-289.948125 109.598125 -288.89625 110.19625 -287.8125 110.8125 C-279.38795353 117.36492503 -273.28064244 125.30578927 -271 136 C-270.36831861 146.44863148 -270.46218491 155.35942095 -275 165 C-275.33 165.99 -275.66 166.98 -276 168 C-275.49210938 167.66226562 -274.98421875 167.32453125 -274.4609375 166.9765625 C-273.42839844 166.30753906 -273.42839844 166.30753906 -272.375 165.625 C-271.70210937 165.18414063 -271.02921875 164.74328125 -270.3359375 164.2890625 C-264.71944269 161.18965901 -259.59317255 160.61308724 -253.3125 160.625 C-252.51956543 160.62516113 -251.72663086 160.62532227 -250.90966797 160.62548828 C-242.68344501 160.78461905 -236.2564463 163.32207516 -229 167 C-229.928125 165.2675 -229.928125 165.2675 -230.875 163.5 C-235.87021518 153.3678614 -236.41963517 143.17169879 -233.375 132.3125 C-229.5565137 121.11160686 -223.29694055 113.59137465 -212.8125 108.1875 C-203.33425139 103.57524989 -190.94003716 103.23930975 -180.9375 106.625 C-176.07563744 108.69166329 -171.99376704 111.56696243 -168 115 C-164.04767702 113.11015361 -160.42304188 110.78571821 -156.73046875 108.4375 C-147.76445024 103.71719269 -136.51767276 103.62949772 -126.73046875 105.6875 C-121.24763736 107.52789096 -117.08581502 110.0876345 -112.8515625 114.0234375 C-110.9632431 115.28644681 -110.9632431 115.28644681 -108.546875 114.3515625 C-105.30954812 112.63359455 -102.4357493 110.58963586 -99.4765625 108.4375 C-93.8599786 105.17740083 -88.09180109 104.61058026 -81.75 104.625 C-81.00782227 104.62661133 -80.26564453 104.62822266 -79.50097656 104.62988281 C-70.97714652 104.81847949 -63.27657628 106.93985738 -57 113 C-57.33773437 112.29875 -57.67546875 111.5975 -58.0234375 110.875 C-63.78459993 98.62004176 -65.68526212 88.39576134 -62.1328125 75.1171875 C-60.15211883 69.66686493 -57.14019328 64.85224386 -54 60 C-54.38671875 59.50113281 -54.7734375 59.00226563 -55.171875 58.48828125 C-62.50140752 48.38296043 -65.41953099 37.40439282 -63.5625 25.1015625 C-61.24900818 13.85220853 -55.41865399 4.62928338 -46 -2 C-31.0534878 -11.43053746 -14.35457132 -9.24810906 0 0 Z " fill="#000000" transform="translate(911,915)"/>
<path d="M0 0 C3.16685584 2.15900975 6.12213913 4.47032476 9 7 C13.30263329 4.98471509 17.11797762 2.30430038 21.05078125 -0.34375 C29.53644913 -5.10921117 39.71507715 -5.32189183 49.1015625 -3.34765625 C55.72332221 -1.1745999 60.79640148 2.42597266 66 7 C68.96404628 5.60789736 71.52782057 3.96642353 74.1875 2.0625 C83.40856297 -4.05000365 91.97601035 -5.01902425 103 -4 C113.80191694 -1.70868429 122.05175236 4.74401308 128.49609375 13.55078125 C134.72084855 23.68823906 135.95977822 34.49282245 133.8125 46.01953125 C132.71964313 50.02842447 131.02546751 53.50876263 129.0234375 57.13671875 C127.91976251 58.79177277 127.91976251 58.79177277 128 60 C128.70962891 59.51080078 128.70962891 59.51080078 129.43359375 59.01171875 C139.32116272 52.47782815 148.10539503 50.8891712 160 52 C170.98791707 54.4280416 179.47966743 60.95780852 186 70 C191.62807067 79.69571053 192.95379977 90.04173173 191 101 C189.15659717 107.91732348 186.46268299 113.42164627 182 119 C183.10670769 121.24533964 184.2485866 123.46069582 185.4375 125.6640625 C191.49566429 137.14428383 193.61589303 147.18392616 190.2109375 159.9609375 C188.69960483 164.44578647 187.06643026 168.15401035 184.125 171.875 C181.6731019 174.71737289 181.6731019 174.71737289 182.375 177.4375 C183.27335269 178.85413309 184.18701045 180.26257023 185.16015625 181.62890625 C191.00212322 190.18640527 192.84028512 199.84509446 191.5703125 210.0859375 C189.17258777 222.33732548 183.16889761 231.72859227 173 239 C163.24787448 244.30181453 152.7567594 245.68415992 141.8515625 243.31640625 C135.74879088 241.25650715 130.86998701 238.18623525 126 234 C126.40992188 234.72445313 126.81984375 235.44890625 127.2421875 236.1953125 C134.09481603 248.49069862 136.81518058 259.1106329 133 273 C128.48154783 284.9405654 121.73827404 292.47210013 110.140625 297.8046875 C99.9975232 301.66512177 89.98919729 302.05275284 79.94140625 297.6640625 C75.3030928 295.23710965 71.59144098 292.8408466 68 289 C65.02798898 290.39898717 62.42983013 292.04330352 59.75 293.9375 C50.02589135 300.45201723 40.57065591 302.02511051 29.0703125 299.86328125 C22.00539248 297.87683427 16.00388715 294.35137932 11 289 C8.02798898 290.39898717 5.42983013 292.04330352 2.75 293.9375 C-6.96548015 300.4462367 -16.45441334 302.0551954 -27.9453125 299.84765625 C-37.96773784 297.0664973 -46.32266872 291.00330474 -51.75390625 282.13671875 C-57.72826642 270.8070285 -59.69262559 260.44182684 -56.10546875 247.86328125 C-54.64626416 243.76985713 -52.98960008 239.8632145 -51 236 C-51.47308594 236.32613281 -51.94617187 236.65226562 -52.43359375 236.98828125 C-62.32116272 243.52217185 -71.10539503 245.1108288 -83 244 C-93.81062843 241.61113454 -102.76212557 235.10638603 -109 226 C-114.97943188 214.25744644 -116.39941286 203.75923265 -113.06640625 191.0390625 C-111.65331955 187.01202421 -109.610921 183.6655781 -107.20703125 180.15625 C-105.6743607 177.83012553 -105.6743607 177.83012553 -106 174 C-107.20556034 171.77037297 -107.20556034 171.77037297 -108.8125 169.5 C-114.9692964 159.63165968 -116.26434389 149.30371608 -113.875 138.125 C-112.48493394 132.81991696 -110.29530997 128.66468609 -107.20703125 124.15625 C-105.6743607 121.83012553 -105.6743607 121.83012553 -106 118 C-107.20556034 115.77037297 -107.20556034 115.77037297 -108.8125 113.5 C-114.9692964 103.63165968 -116.26434389 93.30371608 -113.875 82.125 C-111.09868828 71.83707853 -105.35613253 62.69173532 -96.02734375 57.2734375 C-85.87963185 52.07011499 -76.11795477 50.09858584 -64.78125 52.75390625 C-59.69787678 54.53448341 -55.29196181 56.7520289 -51 60 C-51.33773438 59.32195312 -51.67546875 58.64390625 -52.0234375 57.9453125 C-57.63188906 46.24212745 -59.66909464 35.63507256 -56.12890625 22.85546875 C-52.18594455 12.22720867 -45.29679407 4.79814337 -35.5546875 -0.84375 C-24.31264032 -5.93189368 -10.91711005 -5.87323595 0 0 Z " fill="#FEFEFE" transform="translate(1647,1080)"/>
<path d="M0 0 C8.15643136 7.53939636 12.58135174 17.44564561 13.58984375 28.3828125 C13.92330338 38.81342986 11.34185478 46.52319133 5.421875 55.05078125 C4.01164666 58.00530894 4.278673 59.30797991 5.3125 62.375 C6.37295397 64.25237405 6.37295397 64.25237405 7.6875 66 C13.62946458 75.19712778 14.8480004 86.18456532 12.5859375 96.77734375 C11.16514189 101.81943548 9.73408945 106.21043231 6.5 110.375 C4.10452629 113.08569037 4.10452629 113.08569037 4.1875 115.8125 C5.19531522 118.10807911 6.30574857 119.92316019 7.6875 122 C13.62946458 131.19712778 14.8480004 142.18456532 12.5859375 152.77734375 C10.76996207 159.22184191 8.61310169 164.2381702 4.3125 169.375 C4.84617187 168.98828125 5.37984375 168.6015625 5.9296875 168.203125 C16.49164573 160.82071821 25.25664601 157.99488858 38.3125 159.375 C44.69878994 160.90521128 50.06473102 163.47281281 55.3125 167.375 C55.9725 167.705 56.6325 168.035 57.3125 168.375 C56.98636719 167.92511719 56.66023438 167.47523438 56.32421875 167.01171875 C50.21142465 158.01383009 48.11913391 148.16953874 49.3125 137.375 C51.53378904 126.21566698 56.3907807 116.17904401 66.0390625 109.69140625 C76.50906361 103.62887984 86.48119228 101.24293184 98.5 104.14453125 C103.62377379 105.89190519 108.00328644 108.11681413 112.3125 111.375 C113.488125 112.24125 113.488125 112.24125 114.6875 113.125 C115.22375 113.5375 115.76 113.95 116.3125 114.375 C118.71080935 113.30908473 120.49492152 112.2186387 122.5 110.5 C131.78038543 103.48815323 142.00839403 102.40512109 153.3125 103.375 C163.71497518 106.0913372 172.17885958 111.79370865 178.1875 120.6875 C184.23352103 131.01202779 185.85768378 141.25841571 183.84375 153.140625 C182.15700698 159.52615213 178.9192028 164.88907665 175.3125 170.375 C175.71339844 169.98828125 176.11429688 169.6015625 176.52734375 169.203125 C185.40116438 161.07381993 194.59417057 158.85517706 206.421875 159.10546875 C216.56423969 159.80810245 224.15565474 164.30620029 231.3125 171.375 C239.28562527 180.73699226 242.21637777 191.35825406 241.703125 203.4921875 C240.88425633 211.63174213 237.87897015 217.7614915 233.3125 224.375 C232.16481087 226.85750172 232.16481087 226.85750172 232.3125 229.375 C233.59312485 231.0824998 234.93881655 232.74143049 236.3125 234.375 C241.56961403 244.54240456 243.13869423 255.41733501 240.55859375 266.66015625 C238.76288288 271.77969273 236.37544283 275.93901384 233.3125 280.375 C232.42660441 282.76772894 232.42660441 282.76772894 232.3125 285.375 C233.38010404 287.59386783 233.38010404 287.59386783 235.0625 289.625 C241.63117375 298.95862711 242.31537781 308.22211713 241.3125 319.375 C239.79663685 325.87377739 237.06053292 330.94681439 233.3125 336.375 C232.42710751 338.7704711 232.42710751 338.7704711 232.3125 341.375 C233.3823247 343.55978242 233.3823247 343.55978242 235.0625 345.5625 C241.54374357 354.74174962 242.3572715 364.30511775 241.3125 375.375 C238.86525638 386.311552 232.58115038 396.03329184 223.3125 402.375 C213.27794464 408.37144382 202.40659777 408.97592106 191.1328125 406.74609375 C180.58310552 403.41382087 172.44278789 396.07498141 167.3125 386.375 C162.06184612 375.06748948 162.17514625 364.25148996 166.0234375 352.58203125 C167.93153597 347.83491353 170.44943378 343.60279445 173.3125 339.375 C172.75820312 338.46878906 172.20390625 337.56257813 171.6328125 336.62890625 C163.92247078 323.77597882 163.92247078 323.77597882 163.3125 316.375 C163.24417969 315.58867188 163.17585938 314.80234375 163.10546875 313.9921875 C162.63974503 302.98730842 166.39565147 294.42742394 172.3125 285.375 C172.6425 284.715 172.9725 284.055 173.3125 283.375 C172.10235372 281.12502432 170.84325007 278.98053283 169.5 276.8125 C166.31029373 271.43329605 163.83468746 266.71087452 163.3125 260.375 C163.24417969 259.58867188 163.17585938 258.80234375 163.10546875 257.9921875 C162.68249205 247.99740475 165.49303238 239.79414676 171.203125 231.6640625 C172.64114786 228.69687449 172.35581492 227.47159681 171.3125 224.375 C170.3877693 222.59563481 169.40413198 220.84609114 168.375 219.125 C162.96657424 209.43652507 161.84887894 199.61280568 164.5 188.8125 C166.05551022 183.562653 168.41990717 179.00543517 171.3125 174.375 C170.69503906 174.77332031 170.07757812 175.17164063 169.44140625 175.58203125 C158.43882739 182.46492305 148.3618069 185.64378485 135.25 182.68359375 C129.74058137 180.85477284 125.43723405 178.36072907 121.06640625 174.546875 C119.10974307 173.00463026 119.10974307 173.00463026 115.3125 173.375 C113.26977873 174.53933967 113.26977873 174.53933967 111.25 176.125 C101.84890256 182.58634058 92.6827764 184.66707686 81.3125 183.375 C74.94774739 181.81563561 69.53764371 179.29385778 64.3125 175.375 C63.3225 174.715 62.3325 174.055 61.3125 173.375 C61.71082031 173.89707031 62.10914063 174.41914062 62.51953125 174.95703125 C69.1998176 184.23791569 71.57145235 193.98720376 70.3125 205.375 C68.04989931 216.74187491 63.13639035 226.46262978 53.4296875 233.12890625 C43.32265132 239.07751242 32.81245063 241.40782586 21.16015625 238.62109375 C16.03391125 236.82796278 11.66233622 234.6094936 7.3125 231.375 C6.6525 231.045 5.9925 230.715 5.3125 230.375 C5.63863281 230.82488281 5.96476562 231.27476562 6.30078125 231.73828125 C12.4052732 240.72394934 14.52715018 250.59160563 13.3125 261.375 C11.9910778 267.56295019 10.4220101 273.32459035 6.5 278.375 C4.01877513 281.08656033 4.01877513 281.08656033 4.52734375 283.80078125 C5.31017471 286.3673763 6.27928529 288.28801988 7.6875 290.5625 C13.16312965 300.18056252 14.91205206 309.87602477 12.5859375 320.78125 C11.16403117 325.82150333 9.73321381 330.21155987 6.5 334.375 C4.05143714 337.06109395 4.05143714 337.06109395 4.45703125 339.625 C5.53307162 343.08405215 7.11762955 346.18946036 8.8125 349.375 C14.11110512 359.33382408 14.77325022 368.99446284 11.8125 379.9375 C8.07916622 390.83726819 1.4278785 398.86038555 -8.6875 404.375 C-18.19594627 408.69702103 -27.6685545 409.21936165 -37.6875 406.375 C-48.87909678 402.12020655 -56.48137992 395.12782747 -61.6875 384.375 C-66.40766585 373.56314842 -65.96033949 361.9453248 -61.9140625 351 C-60.76670721 348.54451353 -59.525162 346.57625745 -57.875 344.4375 C-55.4831863 341.67041609 -55.4831863 341.67041609 -55.5625 338.9375 C-56.57245419 336.6370488 -57.69032351 334.77923245 -59.0625 332.6875 C-64.70634084 323.90273905 -65.71132279 314.67010692 -64.6875 304.375 C-63.39043686 298.45453439 -61.59620398 293.26051299 -57.875 288.4375 C-55.4831863 285.67041609 -55.4831863 285.67041609 -55.5625 282.9375 C-56.57245419 280.6370488 -57.69032351 278.77923245 -59.0625 276.6875 C-64.70634084 267.90273905 -65.71132279 258.67010692 -64.6875 248.375 C-63.39043686 242.45453439 -61.59620398 237.26051299 -57.875 232.4375 C-55.4831863 229.67041609 -55.4831863 229.67041609 -55.5625 226.9375 C-56.57245419 224.6370488 -57.69032351 222.77923245 -59.0625 220.6875 C-65.16047287 211.19587266 -66.06441097 200.60204304 -64.21875 189.57421875 C-62.77935056 184.06508873 -60.31091885 179.93995773 -56.796875 175.48046875 C-55.46226108 173.39647299 -55.46226108 173.39647299 -55.8671875 170.84375 C-56.67398298 168.41567981 -57.58104788 166.75704372 -59.0625 164.6875 C-64.70634084 155.90273905 -65.71132279 146.67010692 -64.6875 136.375 C-63.39043686 130.45453439 -61.59620398 125.26051299 -57.875 120.4375 C-55.4831863 117.67041609 -55.4831863 117.67041609 -55.5625 114.9375 C-56.57245419 112.6370488 -57.69032351 110.77923245 -59.0625 108.6875 C-64.70634084 99.90273905 -65.71132279 90.67010692 -64.6875 80.375 C-63.39043686 74.45453439 -61.59620398 69.26051299 -57.875 64.4375 C-55.4831863 61.67041609 -55.4831863 61.67041609 -55.5625 58.9375 C-56.57245419 56.6370488 -57.69032351 54.77923245 -59.0625 52.6875 C-65.14703342 43.21679146 -66.08418347 32.61543249 -64.21875 21.609375 C-61.29286698 10.53281786 -55.00923782 1.95565461 -45.33984375 -4.09375 C-30.1054655 -12.39902119 -13.6862495 -10.49987213 0 0 Z " fill="#FEFEFE" transform="translate(1254.6875,972.625)"/>
<path d="M0 0 C2.18986741 1.51663114 4.2394411 3.0771797 6.24609375 4.828125 C8.20275693 6.37036974 8.20275693 6.37036974 12 6 C14.3432617 4.57465356 14.3432617 4.57465356 16.6875 2.6875 C26.04095312 -4.02849686 34.51215946 -5.07284135 46 -4 C52.78907618 -2.49979215 58.02319618 0.27078025 63.24609375 4.828125 C65.20275693 6.37036974 65.20275693 6.37036974 69 6 C71.07725609 4.83783625 71.07725609 4.83783625 73.125 3.25 C82.79395648 -3.37386304 91.22339431 -5.24488432 103 -4 C110.64287026 -2.16870101 117.67445394 1.0827266 123 7 C125.85591223 6.02083009 127.91647033 5.06960806 130.25 3.125 C139.41613914 -3.9579257 149.77512793 -4.96308074 161 -4 C172.69416272 -0.94637203 181.46900393 5.75673987 187.55859375 16.11328125 C192.83121152 26.67280573 193.4983374 37.50666241 190.3125 48.8125 C188.57975295 53.97968834 186.48864703 57.83300493 183 62 C183.78310547 61.41992188 183.78310547 61.41992188 184.58203125 60.828125 C195.11947969 53.37255728 205.01487992 50.44342409 218 52 C229.75795741 55.13730623 238.44051083 61.73991525 244.55859375 72.1875 C249.8935394 82.59715005 250.79200232 93.90690538 247.5 105.1875 C243.17840996 116.54494189 236.2257077 123.93807933 225.4765625 129.24609375 C216.23349418 133.16287783 206.50924203 133.50588178 197 130.25 C192.95658979 128.5766594 189.50493892 126.60623663 186 124 C185.34 123.67 184.68 123.34 184 123 C184.32613281 123.44988281 184.65226563 123.89976563 184.98828125 124.36328125 C191.10107535 133.36116991 193.19336609 143.20546126 192 154 C189.73739931 165.36687491 184.82389035 175.08762978 175.1171875 181.75390625 C165.01015132 187.70251242 154.49995063 190.03282586 142.84765625 187.24609375 C137.72224074 185.45325293 133.32476904 183.26994733 129 180 C128.21625 179.4225 127.4325 178.845 126.625 178.25 C126.08875 177.8375 125.5525 177.425 125 177 C122.03595372 178.39210264 119.47217943 180.03357647 116.8125 181.9375 C107.93379979 187.83261101 99.62974843 189.07717941 89 188 C82.64352742 186.45447362 77.20200375 183.93322235 72 180 C71.21625 179.4225 70.4325 178.845 69.625 178.25 C68.820625 177.63125 68.820625 177.63125 68 177 C65.03595372 178.39210264 62.47217943 180.03357647 59.8125 181.9375 C50.67011552 187.99784887 41.94629925 189.21625547 31 188 C24.40608 186.1031189 18.48103864 183.11077898 13 179 C13.40992188 179.7734375 13.81984375 180.546875 14.2421875 181.34375 C20.28308298 193.02088768 22.99901379 202.60665069 19.375 215.5625 C17.67995156 220.77661641 15.45662013 224.77774999 11.9765625 229 C10.71182132 231.0335059 10.71182132 231.0335059 11.68359375 233.5234375 C12.83024036 235.68063024 14.02952853 237.6336634 15.4375 239.625 C20.82689788 248.10772092 22.28958275 257.95228034 20.49609375 267.75390625 C18.3589711 276.5344273 14.85339667 283.96248388 8 290 C7.51015625 290.49242187 7.0203125 290.98484375 6.515625 291.4921875 C-1.27449054 298.94844095 -10.34983598 300.60879487 -20.79248047 300.47045898 C-31.02006139 300.0409693 -38.5828058 295.97586403 -46 289 C-54.83272196 279.3607266 -57.50465128 268.87905112 -57.28125 256.125 C-56.95054858 248.91570901 -54.55944443 242.82806718 -50.1875 237.125 C-47.79928498 234.30167347 -47.79928498 234.30167347 -47.875 231.5625 C-48.88751138 229.25622408 -50.01182368 227.35710486 -51.375 225.25 C-57.29492264 215.98403412 -57.96811653 206.76630695 -57 196 C-55.49139272 189.53232983 -52.79959746 184.37184468 -49 179 C-48.11019283 177.13936924 -48.11019283 177.13936924 -48 175 C-49.08909943 172.64785886 -49.08909943 172.64785886 -50.75 170.3125 C-57.26236716 159.8775675 -59.0263596 148.91162447 -56.2734375 136.8046875 C-54.4933343 131.60910174 -52.11047188 127.20044067 -48.7578125 122.8515625 C-47.75353581 120.94360492 -47.75353581 120.94360492 -48.67578125 118.65234375 C-49.11277344 117.77707031 -49.54976562 116.90179687 -50 116 C-50.48597656 115.01902344 -50.97195312 114.03804687 -51.47265625 113.02734375 C-52.53415679 110.96432918 -53.59666006 108.90183026 -54.66015625 106.83984375 C-58.65148182 98.38009539 -58.36231009 86.768204 -55.3125 78 C-53.61355087 73.91516201 -51.45704272 70.3528497 -48.7578125 66.8515625 C-47.75353581 64.94360492 -47.75353581 64.94360492 -48.67578125 62.65234375 C-49.11277344 61.77707031 -49.54976562 60.90179687 -50 60 C-50.48597656 59.01902344 -50.97195312 58.03804687 -51.47265625 57.02734375 C-52.53415679 54.96432918 -53.59666006 52.90183026 -54.66015625 50.83984375 C-58.63401109 42.41712519 -58.36261622 30.81460393 -55.375 22.0625 C-50.53780965 10.84290572 -43.25893278 2.3545139 -31.8125 -2.5 C-21.25463135 -5.8450673 -9.81024307 -5.18810931 0 0 Z " fill="#FEFEFE" transform="translate(220,1080)"/>
<path d="M0 0 C9.07229297 6.64391982 15.56702664 16.12668971 17.34765625 27.33984375 C18.33032867 39.33951968 16.97635189 48.69199905 9.45703125 58.234375 C8.13287672 60.30737583 8.13287672 60.30737583 8.4921875 62.80078125 C9.43038773 65.58539381 10.6667339 67.7029466 12.28515625 70.15234375 C17.9864101 79.4630245 18.68140537 89.38218094 16.8828125 100.11328125 C15.18220848 106.493062 11.95395208 111.85453942 8.34765625 117.33984375 C8.74855469 116.953125 9.14945313 116.56640625 9.5625 116.16796875 C18.43698621 108.03805395 27.6259452 105.82587756 39.453125 106.06640625 C49.24232932 106.75371247 56.1033104 110.97197432 63.34765625 117.33984375 C66.31170253 115.94774111 68.87547682 114.30626728 71.53515625 112.40234375 C80.75621922 106.2898401 89.3236666 105.3208195 100.34765625 106.33984375 C108.37638299 108.042907 114.24800925 111.97817873 120.34765625 117.33984375 C123.31170253 115.94774111 125.87547682 114.30626728 128.53515625 112.40234375 C137.746114 106.29653869 146.3333071 105.30075421 157.34765625 106.33984375 C164.31903146 107.94067806 169.79615788 110.89864506 175.34765625 115.33984375 C174.93773437 114.58960938 174.5278125 113.839375 174.10546875 113.06640625 C168.28388325 102.00817924 166.05926419 92.80864663 168.34765625 80.33984375 C170.39700481 73.84004421 172.92359295 68.54684363 177.34765625 63.33984375 C176.24566164 60.13404124 174.84324898 57.58809607 172.91015625 54.83984375 C167.13656235 45.70831393 166.31082861 34.75312505 168.34765625 24.33984375 C171.72399689 12.25133843 179.01493323 3.73791903 189.79296875 -2.50390625 C199.27506894 -6.79549899 210.31653238 -7.34853915 220.22265625 -4.09765625 C230.8925183 0.42991133 239.1361505 8.6626558 243.78515625 19.27734375 C247.14616745 29.62227431 246.82074709 42.07656463 242.578125 52.078125 C241.36831159 54.30187726 240.02550167 56.21954375 238.47265625 58.21484375 C235.99802776 61.07726204 235.99802776 61.07726204 236.78515625 63.90234375 C237.91086516 65.65844965 239.08375411 67.38462782 240.28515625 69.08984375 C246.60153739 79.04292918 247.08014089 91.32011646 244.62109375 102.703125 C243.13407278 107.0735159 241.30388813 110.5769047 238.47265625 114.21484375 C235.99802776 117.07726204 235.99802776 117.07726204 236.78515625 119.90234375 C237.91086516 121.65844965 239.08375411 123.38462782 240.28515625 125.08984375 C246.60153739 135.04292918 247.08014089 147.32011646 244.62109375 158.703125 C243.13407278 163.0735159 241.30388813 166.5769047 238.47265625 170.21484375 C237.77140625 171.24609375 237.07015625 172.27734375 236.34765625 173.33984375 C236.98602562 175.77145024 236.98602562 175.77145024 238.34765625 178.33984375 C238.83363281 179.33242187 239.31960938 180.325 239.8203125 181.34765625 C240.60728516 182.89066406 240.60728516 182.89066406 241.41015625 184.46484375 C246.24842589 193.95211086 246.74261286 204.205397 244.69921875 214.65625 C241.01566956 225.72263925 233.08572664 234.24036445 222.85546875 239.66015625 C213.54825703 243.60950722 203.08482352 243.88716257 193.47265625 240.77734375 C188.07466263 238.53559827 183.71439615 235.17826203 179.34765625 231.33984375 C179.74597656 231.95730469 180.14429688 232.57476563 180.5546875 233.2109375 C188.00409532 245.11911496 190.52492999 256.63491455 187.69140625 270.56640625 C184.37614804 280.71223957 177.08046817 289.86514781 167.5546875 294.78125 C157.1659879 299.4028388 148.40108736 300.44774232 137.34765625 297.33984375 C131.52495568 294.8137103 126.69889978 291.99325697 122.34765625 287.33984375 C119.37564523 288.73883092 116.77748638 290.38314727 114.09765625 292.27734375 C104.37097154 298.79358678 94.91705391 300.36269044 83.4140625 298.203125 C76.312851 296.20393042 69.82798223 292.25323945 64.34765625 287.33984375 C63.69023438 287.90251953 63.69023438 287.90251953 63.01953125 288.4765625 C54.12160303 295.65639483 43.99623376 299.91165053 32.51171875 299.15234375 C21.86994037 297.83921942 11.52088865 292.85098108 4.76171875 284.34375 C1.16644566 279.2840608 -1.07043124 274.32513958 -2.65234375 268.33984375 C-2.87921875 267.53546875 -3.10609375 266.73109375 -3.33984375 265.90234375 C-4.77223732 254.15671646 -2.41463309 243.01307915 4.65234375 233.3359375 C12.12159965 224.54149104 21.39197895 219.10747323 32.9453125 218.1171875 C43.71061136 217.76894295 51.86483469 220.7766262 60.34765625 227.33984375 C61.00765625 227.99984375 61.66765625 228.65984375 62.34765625 229.33984375 C65.72179148 228.98467162 67.94474795 227.4037321 70.66015625 225.46484375 C80.01703112 219.05791958 89.6930079 216.81786386 100.96875 218.80078125 C106.44296732 220.25260176 110.69453054 222.58434956 115.2421875 225.9375 C117.60444405 227.51087681 119.59482203 228.61358259 122.34765625 229.33984375 C124.36845207 228.41803657 124.36845207 228.41803657 126.09765625 226.71484375 C134.80822779 219.51915422 144.22632332 217.5177022 155.34765625 218.33984375 C162.20350466 219.62027426 167.67412557 222.36968256 173.34765625 226.33984375 C174.33765625 226.99984375 175.32765625 227.65984375 176.34765625 228.33984375 C175.93773437 227.68757813 175.5278125 227.0353125 175.10546875 226.36328125 C174.56664062 225.48929688 174.0278125 224.6153125 173.47265625 223.71484375 C172.93898438 222.85632812 172.4053125 221.9978125 171.85546875 221.11328125 C166.43356224 211.14034441 166.49964609 200.1423431 169.3125 189.375 C170.79664315 185.02338027 172.83687745 181.18044215 175.34765625 177.33984375 C174.27837891 178.06300781 174.27837891 178.06300781 173.1875 178.80078125 C172.22972656 179.43242188 171.27195312 180.0640625 170.28515625 180.71484375 C169.34542969 181.34132813 168.40570312 181.9678125 167.4375 182.61328125 C158.87754189 187.39646897 148.67724478 187.72715083 139.2109375 185.65234375 C133.73623948 183.81980885 129.44827828 181.30453339 125.1015625 177.51171875 C123.14489932 175.96947401 123.14489932 175.96947401 119.34765625 176.33984375 C117.00439455 177.76519019 117.00439455 177.76519019 114.66015625 179.65234375 C105.30670313 186.36834061 96.83549679 187.4126851 85.34765625 186.33984375 C78.55858007 184.8396359 73.32446007 182.0690635 68.1015625 177.51171875 C66.14489932 175.96947401 66.14489932 175.96947401 62.34765625 176.33984375 C60.00439455 177.76519019 60.00439455 177.76519019 57.66015625 179.65234375 C48.30670313 186.36834061 39.83549679 187.4126851 28.34765625 186.33984375 C17.25432005 183.88850729 9.03309572 177.33881952 2.34765625 168.33984375 C-3.32572501 159.41443086 -5.02872189 148.94218238 -3.15234375 138.578125 C-1.59575365 132.23678921 0.89567545 126.86574187 4.34765625 121.33984375 C3.80238281 121.73816406 3.25710938 122.13648438 2.6953125 122.546875 C-7.49144749 129.70372689 -16.12951415 131.509342 -28.65234375 130.33984375 C-38.51126286 128.1612811 -45.92918823 122.70180377 -52.65234375 115.33984375 C-54.02502981 113.00519659 -55.24423836 110.77030709 -56.40234375 108.33984375 C-56.70527344 107.7365625 -57.00820313 107.13328125 -57.3203125 106.51171875 C-62.47954278 95.96395907 -61.50480102 85.17462517 -57.87890625 74.2578125 C-56.76125662 71.59894539 -55.59841034 69.60436665 -53.83984375 67.33984375 C-51.35861888 64.62828342 -51.35861888 64.62828342 -51.8671875 61.9140625 C-52.65001846 59.34746745 -53.61912904 57.42682387 -55.02734375 55.15234375 C-60.49479796 45.54864158 -62.21912921 35.89936228 -59.9609375 25.00390625 C-56.48175637 12.51379156 -50.83662493 4.99036262 -39.65234375 -1.66015625 C-26.96066832 -8.3548736 -12.07412594 -7.5574426 0 0 Z " fill="#FEFEFE" transform="translate(565.65234375,1081.66015625)"/>
<path d="M0 0 C9.72872735 6.80824897 15.66749742 15.69351759 18.41015625 27.2890625 C20.27675831 38.94580191 17.07490584 49.84709032 10.79296875 59.6796875 C11.33824219 59.28136719 11.88351562 58.88304687 12.4453125 58.47265625 C22.63207249 51.31580436 31.27013915 49.51018925 43.79296875 50.6796875 C51.26070831 52.32986216 57.0323392 55.72785694 62.79296875 60.6796875 C61.72787208 58.53463234 60.64726796 56.40054113 59.5390625 54.27734375 C58.89130859 53.02244141 58.89130859 53.02244141 58.23046875 51.7421875 C57.57884766 50.49115234 57.57884766 50.49115234 56.9140625 49.21484375 C53.08036222 40.54560513 53.57423685 28.94329911 56.6953125 20.1171875 C62.16561476 7.96961238 70.03769292 0.35090508 82.484375 -4.4375 C92.42928688 -7.09104201 102.69223485 -6.13320062 111.79296875 -1.3203125 C113.98283616 0.19631864 116.03240985 1.7568672 118.0390625 3.5078125 C119.99572568 5.05005724 119.99572568 5.05005724 123.79296875 4.6796875 C126.13623045 3.25434106 126.13623045 3.25434106 128.48046875 1.3671875 C137.83392187 -5.34880936 146.30512821 -6.39315385 157.79296875 -5.3203125 C165.25339858 -3.6717531 171.08074949 -0.31360257 176.79296875 4.6796875 C177.67984375 5.4428125 178.56671875 6.2059375 179.48046875 6.9921875 C186.93324879 15.65352647 190.46703243 26.14794138 190.14453125 37.5234375 C189.16872378 46.2840201 186.45309302 53.91898351 180.79296875 60.6796875 C181.57607422 60.09960938 181.57607422 60.09960938 182.375 59.5078125 C192.91244844 52.05224478 202.80784867 49.12311159 215.79296875 50.6796875 C227.49616981 53.80238342 236.23874471 60.39692365 242.3515625 70.79296875 C248.25681118 82.61946949 248.13370934 94.37478687 244.01953125 106.76171875 C242.90188162 109.42058586 241.73903534 111.4151646 239.98046875 113.6796875 C237.58499504 116.39037787 237.58499504 116.39037787 237.66796875 119.1171875 C238.67578397 121.41276661 239.78621732 123.22784769 241.16796875 125.3046875 C247.10993333 134.50181528 248.32846915 145.48925282 246.06640625 156.08203125 C244.64561064 161.12412298 243.2145582 165.51511981 239.98046875 169.6796875 C237.58499504 172.39037787 237.58499504 172.39037787 237.66796875 175.1171875 C238.67578397 177.41276661 239.78621732 179.22784769 241.16796875 181.3046875 C247.10993333 190.50181528 248.32846915 201.48925282 246.06640625 212.08203125 C244.64561064 217.12412298 243.2145582 221.51511981 239.98046875 225.6796875 C237.49924388 228.39124783 237.49924388 228.39124783 238.0078125 231.10546875 C238.79064346 233.6720638 239.75975404 235.59270738 241.16796875 237.8671875 C246.7371726 247.66575775 248.39599398 257.65447941 246.171875 268.7890625 C242.67905891 280.77330258 235.59255795 289.53599899 224.79296875 295.6796875 C224.19355469 296.03933594 223.59414062 296.39898438 222.9765625 296.76953125 C214.80491496 300.73652793 202.34415356 299.90041981 193.85546875 297.1796875 C182.7461705 292.3414954 175.55576043 284.17284586 170.69921875 273.2109375 C166.77092378 262.00802223 168.21006965 250.45095991 172.79296875 239.6796875 C174.20703125 237.484375 174.20703125 237.484375 175.60546875 235.6796875 C178.00094246 232.96899713 178.00094246 232.96899713 177.91796875 230.2421875 C176.90801456 227.9417363 175.79014524 226.08391995 174.41796875 223.9921875 C168.36862462 214.59378618 167.24553228 204.07576825 169.51953125 193.20703125 C170.93823669 188.18389124 172.38885503 183.8307365 175.60546875 179.6796875 C178.00094246 176.96899713 178.00094246 176.96899713 177.91796875 174.2421875 C176.90801456 171.9417363 175.79014524 170.08391995 174.41796875 167.9921875 C168.77412791 159.20742655 167.76914596 149.97479442 168.79296875 139.6796875 C170.09003189 133.75922189 171.88426477 128.56520049 175.60546875 123.7421875 C177.99728245 120.97510359 177.99728245 120.97510359 177.91796875 118.2421875 C176.90801456 115.9417363 175.79014524 114.08391995 174.41796875 111.9921875 C168.77448255 103.20797855 167.76805784 93.97434824 168.79296875 83.6796875 C170.45551823 76.17139955 173.43605458 69.97300797 177.79296875 63.6796875 C177.39207031 64.06640625 176.99117187 64.453125 176.578125 64.8515625 C167.67915307 73.00390867 158.47783359 75.18861937 146.62109375 74.95703125 C138.3684305 74.35913422 132.32357543 70.71357144 125.80078125 65.8515625 C123.60466076 64.3436342 123.60466076 64.3436342 119.79296875 64.6796875 C117.97132439 65.84267192 117.97132439 65.84267192 116.23046875 67.4296875 C107.38621265 74.3031241 97.81091474 75.92202993 86.79296875 74.6796875 C79.74385005 72.99402868 73.70488224 69.81294507 67.79296875 65.6796875 C68.20289063 66.36933594 68.6128125 67.05898437 69.03515625 67.76953125 C75.29568655 78.6880159 77.62789771 88.74448298 74.66796875 101.1796875 C71.65737448 111.13997136 65.92086405 120.12051572 56.8203125 125.40625 C46.68552371 130.60294608 36.62121766 132.90109752 25.3515625 129.703125 C20.12176539 127.56931542 15.31239816 125.06925956 10.79296875 121.6796875 C11.20289063 122.44152344 11.6128125 123.20335937 12.03515625 123.98828125 C18.44575103 136.27269851 20.40407252 146.11255235 16.859375 159.640625 C15.4462883 163.66766329 13.40388975 167.0141094 11 170.5234375 C9.46732945 172.84956197 9.46732945 172.84956197 9.79296875 176.6796875 C10.99852909 178.90931453 10.99852909 178.90931453 12.60546875 181.1796875 C18.76226515 191.04802782 20.05731264 201.37597142 17.66796875 212.5546875 C16.27790269 217.85977054 14.08827872 222.01500141 11 226.5234375 C9.46732945 228.84956197 9.46732945 228.84956197 9.79296875 232.6796875 C10.99852909 234.90931453 10.99852909 234.90931453 12.60546875 237.1796875 C18.11911518 246.03019796 20.13983771 256.0698779 18.32421875 266.328125 C15.62729424 277.79005417 9.34328868 287.59002072 -0.484375 294.21484375 C-9.45090954 299.19948127 -19.57353729 300.80664764 -29.5859375 298.49609375 C-39.66827318 295.35569411 -48.67030102 289.49866935 -54.08203125 280.2421875 C-54.82003796 278.7355302 -55.52984494 277.21464315 -56.20703125 275.6796875 C-56.52542969 275.01710938 -56.84382813 274.35453125 -57.171875 273.671875 C-60.80406026 264.86759184 -60.54722023 253.5402546 -57.51953125 244.6171875 C-56.15047136 241.33242871 -54.55566633 238.62382181 -52.39453125 235.8046875 C-50.00631623 232.98136097 -50.00631623 232.98136097 -50.08203125 230.2421875 C-51.09454263 227.93591158 -52.21885493 226.03679236 -53.58203125 223.9296875 C-59.50472873 214.6593784 -60.16673507 205.44969708 -59.20703125 194.6796875 C-57.72803952 188.17530451 -55.02606174 182.79922991 -50.96484375 177.53125 C-49.96056706 175.62329242 -49.96056706 175.62329242 -50.8828125 173.33203125 C-51.31980469 172.45675781 -51.75679687 171.58148437 -52.20703125 170.6796875 C-52.69300781 169.69871094 -53.17898438 168.71773437 -53.6796875 167.70703125 C-54.74118804 165.64401668 -55.80369131 163.58151776 -56.8671875 161.51953125 C-60.85851307 153.05978289 -60.56934134 141.4478915 -57.51953125 132.6796875 C-55.82058212 128.59484951 -53.66407397 125.0325372 -50.96484375 121.53125 C-49.96056706 119.62329242 -49.96056706 119.62329242 -50.8828125 117.33203125 C-51.31980469 116.45675781 -51.75679687 115.58148437 -52.20703125 114.6796875 C-52.69300781 113.69871094 -53.17898438 112.71773437 -53.6796875 111.70703125 C-54.74118804 109.64401668 -55.80369131 107.58151776 -56.8671875 105.51953125 C-60.85851307 97.05978289 -60.56934134 85.4478915 -57.51953125 76.6796875 C-55.82058212 72.59484951 -53.66407397 69.0325372 -50.96484375 65.53125 C-49.96056706 63.62329242 -49.96056706 63.62329242 -50.8828125 61.33203125 C-51.31980469 60.45675781 -51.75679687 59.58148437 -52.20703125 58.6796875 C-52.69300781 57.69871094 -53.17898438 56.71773437 -53.6796875 55.70703125 C-54.74118804 53.64401668 -55.80369131 51.58151776 -56.8671875 49.51953125 C-60.84104234 41.09681269 -60.56964747 29.49429143 -57.58203125 20.7421875 C-52.2802574 8.35277913 -44.57787744 0.88083054 -32.20703125 -4.3203125 C-21.65208795 -7.8238441 -9.31770033 -5.5741287 0 0 Z " fill="#FEFEFE" transform="translate(1934.20703125,1081.3203125)"/>
<path d="M0 0 C7.72802904 8.23411236 12.17093321 18.54512462 12.27734375 29.83984375 C11.75764021 40.19393741 8.72020178 48.84974778 2.25 56.9375 C3.35670769 59.18283964 4.4985866 61.39819582 5.6875 63.6015625 C11.71164134 75.01731035 14.05752585 85.31344849 10.35546875 98.00390625 C8.8924558 102.11897263 7.25350061 106.05627909 5.25 109.9375 C5.72308594 109.61136719 6.19617188 109.28523438 6.68359375 108.94921875 C16.57116272 102.41532815 25.35539503 100.8266712 37.25 101.9375 C48.06062843 104.32636546 57.01212557 110.83111397 63.25 119.9375 C69.21485736 131.65143176 70.71306146 142.2221601 67.2890625 154.91015625 C63.62873125 165.57465519 57.01139243 173.21112381 47.0625 178.3125 C37.38231444 182.95998318 26.43311819 183.7762811 16.1875 180.1875 C12.18575454 178.51512876 8.70467286 176.55184703 5.25 173.9375 C5.75660156 174.95457031 5.75660156 174.95457031 6.2734375 175.9921875 C11.84672694 187.62199957 14.19290998 198.60364372 10.203125 211.2578125 C8.12405033 216.48116676 5.90578065 220.63474751 2.25 224.9375 C3.35670769 227.18283964 4.4985866 229.39819582 5.6875 231.6015625 C11.42961039 242.48286169 13.50072278 251.67394638 11.25 263.9375 C9.20065144 270.43729954 6.6740633 275.73050012 2.25 280.9375 C3.35199461 284.14330251 4.75440727 286.68924768 6.6875 289.4375 C12.43522273 298.52811192 13.35211472 309.56538904 11.25 319.9375 C9.38316772 325.50547362 6.89634649 330.70634997 4.25 335.9375 C4.74628906 335.53917969 5.24257813 335.14085937 5.75390625 334.73046875 C14.89491709 327.60152101 23.61754744 324.91196892 35.25 325.9375 C43.28897365 327.52238079 49.32731638 330.04018415 55.34765625 335.64453125 C57.14460142 337.14902735 57.14460142 337.14902735 59.2578125 336.81640625 C61.51042015 335.82260876 63.15810755 334.62169707 65.0625 333.0625 C73.57599559 326.4637497 82.6498265 325.04779719 93.25 325.9375 C101.68632863 327.68367276 107.88033056 331.21123152 114.25 336.9375 C113.85167969 336.32003906 113.45335937 335.70257812 113.04296875 335.06640625 C105.76498233 323.43225277 103.12434 312.51232427 105.87109375 298.84765625 C109.355491 288.05376788 116.18777989 279.18808801 126.25 273.9375 C126.99765625 273.52628906 127.7453125 273.11507813 128.515625 272.69140625 C137.45798737 268.41269313 147.85351295 268.47709873 157.1875 271.5625 C167.38052772 275.8813236 175.86706882 283.73870733 180.47265625 293.87890625 C184.98557275 305.83019767 184.02864303 317.44362722 178.87890625 329.01953125 C173.48309841 339.30650303 165.26543667 345.77636189 154.19921875 349.3125 C142.19837278 351.85572564 131.86603245 349.52119508 121.5625 343.1875 C120.45119668 342.44811583 119.34395021 341.70232479 118.25 340.9375 C118.65992188 341.69933594 119.06984375 342.46117187 119.4921875 343.24609375 C125.77345008 355.28267586 128.34559624 365.77687153 124.34765625 379.03515625 C120.75387694 388.53756916 115.89929517 395.54867212 107.25 400.9375 C106.62480469 401.34613281 105.99960938 401.75476562 105.35546875 402.17578125 C97.13139988 406.93708428 87.03873733 407.84773036 77.8828125 405.765625 C70.7010663 403.50667812 64.76682994 400.01879074 59.25 394.9375 C56.84807094 396.00502403 55.03105973 397.11995023 53 398.8125 C45.12955318 404.8942089 36.30491676 407.30435567 26.3203125 406.78515625 C14.74727888 405.06395437 4.94438248 399.12293027 -2.31640625 389.9609375 C-3.62285259 388.00321791 -4.71410886 386.04990547 -5.75 383.9375 C-6.06839844 383.3084375 -6.38679687 382.679375 -6.71484375 382.03125 C-10.45606251 373.0661175 -10.1955681 361.00674725 -7.0625 351.875 C-5.09827939 347.27069792 -2.6157528 343.0364661 0.25 338.9375 C-0.15089844 339.32421875 -0.55179688 339.7109375 -0.96484375 340.109375 C-9.83932996 348.2392898 -19.02828895 350.45146619 -30.85546875 350.2109375 C-41.512815 349.46267849 -49.46576143 344.4728707 -56.72265625 336.87109375 C-65.21929942 326.78696736 -67.01623293 315.89724198 -66.03369141 303.06884766 C-65.1615576 296.51658596 -62.19421741 290.75952836 -58.3125 285.5 C-56.43068376 283.06520948 -56.43068376 283.06520948 -57.25 280.4375 C-58.75859636 277.85395927 -58.75859636 277.85395927 -60.6875 275.1875 C-67.00388114 265.23441457 -67.48248464 252.95722729 -65.0234375 241.57421875 C-63.53641653 237.20382785 -61.70623188 233.70043905 -58.875 230.0625 C-56.40357112 227.20812502 -56.40357112 227.20812502 -57.1875 224.4375 C-57.703125 223.6125 -58.21875 222.7875 -58.75 221.9375 C-63.38766066 214.00859629 -66.31009662 207.45239224 -66.1875 198.125 C-66.18282715 197.34108887 -66.1781543 196.55717773 -66.17333984 195.74951172 C-65.96648483 187.58462483 -63.40083351 181.14049585 -59.75 173.9375 C-60.39066406 174.34742188 -61.03132812 174.75734375 -61.69140625 175.1796875 C-62.55636719 175.71851563 -63.42132812 176.25734375 -64.3125 176.8125 C-65.15941406 177.34617187 -66.00632812 177.87984375 -66.87890625 178.4296875 C-75.47261759 182.94284747 -85.45537097 183.26143331 -94.8515625 181.28515625 C-106.1005596 177.59358396 -114.39256149 169.81440807 -120.0703125 159.55078125 C-124.36504795 149.7449692 -124.48517538 137.02498785 -121.1875 126.875 C-116.53849425 116.26031205 -108.29486205 108.02756758 -97.625 103.5 C-87.93606243 100.36534373 -77.58927541 100.7422252 -68.203125 104.6484375 C-64.37468896 106.66019529 -61.02400118 109.12317233 -57.75 111.9375 C-58.24371094 110.96167969 -58.73742187 109.98585938 -59.24609375 108.98046875 C-59.89333531 107.69536595 -60.54046488 106.41020675 -61.1875 105.125 C-61.51298828 104.48240234 -61.83847656 103.83980469 -62.17382812 103.17773438 C-66.7767312 94.01938083 -67.15925476 83.57784718 -65.03125 73.55078125 C-63.53433213 69.22299854 -61.68728767 65.65614227 -58.9375 62 C-56.49058717 59.29348357 -56.49058717 59.29348357 -56.96484375 56.9765625 C-57.79565904 54.81892278 -58.81088552 53.14949274 -60.125 51.25 C-66.56064931 41.02757733 -67.48309129 29.45853218 -65.09375 17.7109375 C-61.78017306 7.57024945 -54.47513657 -1.63490968 -44.921875 -6.50390625 C-29.16841578 -13.4504693 -13.04051602 -11.99727474 0 0 Z " fill="#FEFEFE" transform="translate(970.75,974.0625)"/>
<path d="M0 0 C2.96404628 1.39210264 5.52782057 3.03357647 8.1875 4.9375 C17.40856297 11.05000365 25.97601035 12.01902425 37 11 C45.02872674 9.29693675 50.900353 5.36166502 57 0 C61.30263329 2.01528491 65.11797762 4.69569962 69.05078125 7.34375 C77.49767524 12.08743616 87.80883797 12.42635738 97.13671875 10.27734375 C102.90146975 8.29143929 108.01120313 5.48786944 113 2 C111.56229049 5.83389204 109.80169455 9.41563869 107.90234375 13.03515625 C104.0201659 21.4885565 104.69741202 34.53071302 107.6875 43.1875 C109.0683383 46.4426892 110.70815323 49.09075032 112.875 51.875 C115 55 115 55 114.5625 57.5625 C113.43679109 59.3186059 112.26390214 61.04478407 111.0625 62.75 C104.74611886 72.70308543 104.26751536 84.98027271 106.7265625 96.36328125 C108.21358347 100.73367215 110.04376812 104.23706095 112.875 107.875 C113.57625 108.90625 114.2775 109.9375 115 111 C114.32421875 113.3125 114.32421875 113.3125 113 116 C112.51402344 116.99257812 112.02804687 117.98515625 111.52734375 119.0078125 C111.00269531 120.03648438 110.47804688 121.06515625 109.9375 122.125 C105.11162926 131.58795436 104.43876729 142.09038594 106.7890625 152.4921875 C108.3418688 156.8661228 110.10160702 160.36247528 113 164 C112.67 164.66 112.34 165.32 112 166 C111.09121094 165.40251953 111.09121094 165.40251953 110.1640625 164.79296875 C100.04084462 158.39198021 90.45094918 155.27379924 78.43359375 157.46875 C72.79366763 158.95154748 68.12229944 161.46406567 63.2265625 164.59765625 C61.19759821 165.87554779 59.1622402 166.96824611 57 168 C56.52691406 167.61328125 56.05382813 167.2265625 55.56640625 166.828125 C45.80051229 159.13724555 36.42829073 156.09551523 24 157 C17.30800292 158.19283332 11.91664788 160.95563092 6.2265625 164.59765625 C4.19759821 165.87554779 2.1622402 166.96824611 0 168 C-0.47308594 167.61328125 -0.94617187 167.2265625 -1.43359375 166.828125 C-11.19948771 159.13724555 -20.57170927 156.09551523 -33 157 C-40.59366575 158.35355371 -46.5813708 161.87726509 -53 166 C-53.66 166.33 -54.32 166.66 -55 167 C-54.58427734 166.18015625 -54.58427734 166.18015625 -54.16015625 165.34375 C-52.87525658 162.7479931 -51.64827004 160.13116593 -50.4375 157.5 C-50.00308594 156.5615625 -49.56867188 155.623125 -49.12109375 154.65625 C-45.49496205 146.06471843 -45.63481111 134.77648056 -48.6875 126 C-50.38644913 121.91516201 -52.54295728 118.3528497 -55.2421875 114.8515625 C-56 113 -56 113 -55.32421875 110.65234375 C-54.66873047 109.33943359 -54.66873047 109.33943359 -54 108 C-53.51402344 107.01902344 -53.02804687 106.03804687 -52.52734375 105.02734375 C-51.46584321 102.96432918 -50.40333994 100.90183026 -49.33984375 98.83984375 C-45.34851818 90.38009539 -45.63768991 78.768204 -48.6875 70 C-50.38644913 65.91516201 -52.54295728 62.3528497 -55.2421875 58.8515625 C-56 57 -56 57 -55.32421875 54.65234375 C-54.66873047 53.33943359 -54.66873047 53.33943359 -54 52 C-53.51402344 51.01902344 -53.02804687 50.03804687 -52.52734375 49.02734375 C-51.46584321 46.96432918 -50.40333994 44.90183026 -49.33984375 42.83984375 C-45.31804186 34.3154998 -45.65783331 22.69070661 -48.75 13.875 C-50.42645662 9.90539021 -52.40236226 6.43259273 -55 3 C-54.67 2.34 -54.34 1.68 -54 1 C-53.32517578 1.58007812 -53.32517578 1.58007812 -52.63671875 2.171875 C-42.71381091 10.20565209 -32.65695092 12.31447991 -20 11 C-11.96969177 9.28212393 -6.10522675 5.36656969 0 0 Z " fill="#000000" transform="translate(1656,1144)"/>
<path d="M0 0 C2.85591223 0.97916991 4.91647033 1.93039194 7.25 3.875 C16.19761496 10.7890661 25.99245214 11.83053762 37 11 C43.74964356 9.50293077 49.0624961 6.68922466 54.34375 2.26953125 C56 1 56 1 59 0 C60.7265625 1.07421875 60.7265625 1.07421875 62.625 2.6875 C72.2051434 10.28798277 81.97554708 11.93084312 94 11 C100.35477387 9.48020897 105.80584189 6.92729028 111 3 C111.78375 2.4225 112.5675 1.845 113.375 1.25 C113.91125 0.8375 114.4475 0.425 115 0 C113.95274513 2.11390334 112.8870593 4.21284979 111.78125 6.296875 C105.81162987 17.72651354 104.09113348 28.14513614 107.6875 40.8125 C109.42024705 45.97968834 111.51135297 49.83300493 115 54 C114.67 54.66 114.34 55.32 114 56 C113.59910156 55.61328125 113.19820312 55.2265625 112.78515625 54.828125 C104.10319756 46.87458461 95.25010434 44.63059237 83.68359375 44.71484375 C75.8745331 45.31936276 69.19344101 48.31715436 63 53 C62.21625 53.5775 61.4325 54.155 60.625 54.75 C60.08875 55.1625 59.5525 55.575 59 56 C56.60169065 54.93408473 54.81757848 53.8436387 52.8125 52.125 C43.75128415 45.27874802 34.09021105 44.16233512 23 45 C16.11355472 46.5450358 10.57282556 49.5992121 4.97265625 53.828125 C3 55 3 55 -1 55 C-2.75390625 53.828125 -2.75390625 53.828125 -4.5625 52.25 C-13.66287429 45.19051847 -23.67324101 43.60192724 -35 45 C-40.15353407 46.5137062 -44.9041251 48.41603791 -49.20703125 51.66796875 C-51 53 -51 53 -53 53 C-52.00207533 50.49400083 -50.99677739 47.9922171 -49.96484375 45.5 C-49.62582031 44.675 -49.28679687 43.85 -48.9375 43 C-48.59589844 42.175 -48.25429687 41.35 -47.90234375 40.5 C-44.11477448 30.00630159 -46.01552184 20.16774863 -50 10 C-50.99094257 8.32793224 -51.9889453 6.65998379 -53 5 C-53 4.34 -53 3.68 -53 3 C-52.18208984 3.41572266 -52.18208984 3.41572266 -51.34765625 3.83984375 C-48.73269212 5.13209724 -46.09164737 6.35278657 -43.4375 7.5625 C-42.48746094 7.99691406 -41.53742188 8.43132812 -40.55859375 8.87890625 C-32.45033199 12.4316866 -22.4092844 12.19628337 -14.0625 9.375 C-8.77449775 7.16968965 -4.06034877 4.06034877 0 0 Z " fill="#000000" transform="translate(286,1144)"/>
</svg>
